<?xml version="1.0" encoding="UTF-8" standalone="no"?>
<!-- Created with Inkscape (http://www.inkscape.org/) -->

<svg
   width="158.75014mm"
   height="46.302086mm"
   viewBox="0 0 158.75014 46.302086"
   version="1.1"
   id="svg1"
   xmlns="http://www.w3.org/2000/svg"
   xmlns:svg="http://www.w3.org/2000/svg">
  <defs
     id="defs1" />
  <g
     id="layer1"
     transform="translate(-3.8685804e-6,-230.18752)">
    <g
       id="g9">
      <path
         d="m 29.746962,232.64996 v 6.50275 c -11.597231,-5.5942 -22.0806566,-2.37933 -22.0806566,6.63064 0,7.57015 8.5468886,10.60144 15.2471846,7.718 v -3.47522 h -4.31363 v -5.45804 h 11.766386 v 12.17397 C 23.946693,263.15135 3.8685806e-6,262.98953 3.8685806e-6,245.52751 3.8685806e-6,230.80221 17.945864,227.07401 29.746962,232.64996 Z M 54.2834,230.58188 67.523251,260.36654 H 59.53663 l -2.455779,-5.88445 H 43.734227 l -2.220879,5.88445 H 33.633501 L 45.65614,230.58188 Z m 0.597928,18.69802 -4.804785,-11.57699 -4.377694,11.57699 z m 37.776284,-18.69802 v 5.45804 H 81.852185 v 24.32662 H 74.420784 V 236.03992 H 63.615356 v -5.45804 z M 110.168,230.582 c 11.28605,0 17.06272,7.74955 17.06272,14.90287 0,7.56625 -6.21382,14.88213 -17.06233,14.88213 -11.023162,0 -17.105038,-7.32321 -17.105038,-14.88213 0,-7.20521 5.775122,-14.90287 17.104648,-14.90287 z m 0,25.785 c 3.39873,-5.86001 3.39993,-15.92295 0,-21.785 -3.4043,5.86963 -3.39877,15.92493 0,21.785 z m 22.44412,-25.78512 h 13.32527 c 6.19814,0 9.75905,4.15985 9.75905,8.57083 0,3.28334 -1.70837,5.71387 -5.1251,7.29157 1.50906,0.66804 2.93269,2.49449 4.27091,5.47936 1.35246,2.98487 2.6551,5.79915 3.9079,8.4429 h -8.17881 c -2.13226,-3.69877 -3.46929,-11.59968 -8.39236,-12.0887 h -2.13546 v 12.0887 h -7.4314 z m 7.4314,5.45804 v 6.7799 c 3.03147,-0.003 7.92888,0.74272 8.00797,-3.41128 0.0791,-4.15399 -5.06703,-3.36862 -8.00797,-3.36862 z"
         id="text8"
         style="font-weight:bold;font-size:43.7989px;line-height:1;font-family:'Gill Sans MT';-inkscape-font-specification:'Gill Sans MT Bold';letter-spacing:0px;fill:#2a2d34;stroke-width:0.884798;stroke-opacity:0.444089"
         aria-label="GATOR" />
      <path
         d="m 18.166941,264.77199 -2.984627,11.50805 H 13.46249 l -2.413924,-9.55269 -2.3599375,9.55269 H 7.0073655 L 3.9687527,264.77199 h 1.5655797 l 2.4139234,9.56814 2.3753622,-9.56814 h 1.550155 l 2.398499,9.66088 2.3985,-9.66088 z m 15.082546,11.50805 h -7.565684 v -11.50805 h 7.565684 v 1.36026 h -6.038665 v 3.15331 h 6.038665 v 1.36025 h -6.038665 v 4.27398 h 6.038665 z m 16.347347,-3.53974 c 0,3.16487 -3.113622,3.53974 -4.588768,3.53974 h -4.07205 v -11.50805 h 3.401087 c 1.935609,0 4.190601,0.36376 4.28028,2.58137 0,1.24934 -0.773658,1.94113 -1.527019,2.31862 v 0.0619 c 1.369496,0.28177 2.50647,1.23906 2.50647,3.00648 z m -2.568167,-5.18597 c 0,-2.15732 -4.565633,-1.47621 -4.565633,-1.47621 v 3.32334 c 0,0 4.565633,0.31018 4.565633,-1.84713 z m 0.979451,5.24778 c 0,-2.89024 -5.545084,-2.10994 -5.545084,-2.10994 v 4.2817 c 0,0 5.545084,0.7185 5.545084,-2.17176 z m 29.540404,-2.2645 c 0,2.10711 -0.860873,5.74243 -6.802174,5.74243 h -2.899793 v -11.50805 h 2.868944 c 5.674814,0 6.833023,3.1743 6.833023,5.76562 z m -1.596428,-0.0232 c 0.06984,-4.15435 -3.482949,-4.45026 -6.57852,-4.42854 v 8.88028 c 2.668607,0.0863 6.508684,-0.29738 6.57852,-4.45174 z m 16.894918,5.76562 h -7.565684 v -11.50804 h 7.565684 v 1.36026 h -6.038665 v 3.15331 h 6.038665 v 1.36025 h -6.038665 v 4.27398 h 6.038665 z m 16.031148,-3.2847 c 0,3.44823 -4.7366,4.40392 -8.85363,2.57366 v -1.91673 h 0.10798 c 2.73662,2.28136 7.15693,1.86802 7.15693,-0.44052 -0.15662,-3.47764 -7.1955,-0.50206 -7.1955,-5.356 0,-3.49501 4.96553,-3.95377 8.32148,-2.48864 v 1.80851 h -0.10797 c -2.1086,-1.78995 -6.62479,-1.78767 -6.62479,0.53328 0.44426,3.57974 7.1955,0.56136 7.1955,5.28644 z m 11.76629,3.2847 h -4.53479 v -1.17476 h 1.50389 v -9.15851 h -1.50389 v -1.17478 h 4.53479 v 1.17478 h -1.50388 v 9.15851 h 1.50388 z m 17.44248,-0.85016 c -5.05741,2.32634 -10.2341,0.88089 -10.2341,-4.91546 0,-6.34355 6.13806,-6.87028 10.22639,-4.91545 v 1.81625 h -0.13882 c -3.10412,-2.52231 -8.49886,-2.28427 -8.49886,3.05283 0,5.92865 5.74226,4.77002 7.1338,4.18896 v -2.82097 h -3.07717 v -1.34479 h 4.58876 z m 16.69439,0.85016 h -1.88949 l -5.44482,-10.29464 v 10.29464 h -1.42676 v -11.50804 h 2.36765 l 4.96667,9.39811 v -9.39811 h 1.42675 z"
         id="text9"
         style="font-size:15.7886px;line-height:1;-inkscape-font-specification:sans-serif;letter-spacing:5.26289px;fill:#2a2d34;stroke-width:0.996002;stroke-opacity:0.444089"
         aria-label="WEB DESIGN" />
    </g>
  </g>
</svg>
